<?xml version="1.0" standalone="no"?>
<!DOCTYPE svg PUBLIC "-//W3C//DTD SVG 1.1//EN" "http://www.w3.org/Graphics/SVG/1.1/DTD/svg11.dtd" >
<svg xmlns="http://www.w3.org/2000/svg">
<metadata></metadata>
<defs>
<font id="halis_grs_black" horiz-adv-x="1511" >
<font-face units-per-em="2048" ascent="1638" descent="-410" />
<missing-glyph horiz-adv-x="614" />
<glyph horiz-adv-x="2048" />
<glyph horiz-adv-x="2048" />
<glyph unicode="&#xd;" horiz-adv-x="2048" />
<glyph unicode=" "  horiz-adv-x="614" />
<glyph unicode="&#x09;" horiz-adv-x="614" />
<glyph unicode="&#xa0;" horiz-adv-x="614" />
<glyph unicode="!" horiz-adv-x="753" d="M223 872v566h312v-566l-37 -417h-238zM225 139q0 66 45.5 112t112.5 46q66 0 111 -46t45 -112q0 -67 -45 -111t-111 -44q-68 0 -113 44t-45 111z" />
<glyph unicode="&#x22;" horiz-adv-x="905" d="M82 1438h299l-49 -523h-201zM524 1438h299l-49 -523h-201z" />
<glyph unicode="#" horiz-adv-x="1179" d="M123 209v242h160v122h-160v244h160v207h245v-207h123v207h246v-207h160v-244h-160v-122h160v-242h-160v-209h-246v209h-123v-209h-245v209h-160zM528 451h123v122h-123v-122z" />
<glyph unicode="$" horiz-adv-x="1343" d="M123 139l145 275q255 -123 410 -123q81 0 138.5 35t57.5 88q0 26 -13.5 48.5t-33 38.5t-55 32.5t-65 26.5t-78.5 26q-173 57 -246 96q-190 101 -216 281q-5 31 -5 65q0 179 109 291t290 133v184h221v-194q188 -30 389 -123l-120 -279q-266 107 -396 107q-72 0 -118 -25 t-45 -80q1 -14 7 -27t18 -25t23.5 -22t32.5 -20.5t36.5 -18t44 -18t46 -17t51.5 -18.5t52 -18q71 -25 121.5 -46.5t110.5 -59.5t97.5 -80t63 -105t25.5 -139q0 -169 -121.5 -291t-317.5 -147v-189h-221v191q-211 22 -438 147z" />
<glyph unicode="%" horiz-adv-x="1755" d="M61 1108q0 44 9.5 88t33 90t59.5 81t94 57t130 22q71 0 128.5 -22t92.5 -57t58.5 -81t33 -90t9.5 -88t-9.5 -87.5t-33 -89t-59 -79.5t-92.5 -56t-128 -22q-72 0 -130 22t-94 56t-59.5 79.5t-33 89t-9.5 87.5zM309 1108q0 -19 4 -37.5t23 -38.5t51 -20q23 0 39 10.5 t23 27.5t9.5 31t2.5 27q0 14 -2.5 28t-9.5 31.5t-23 28t-39 10.5q-32 0 -51 -20t-23 -39t-4 -39zM518 0l477 1434h248l-475 -1434h-250zM1049 324q0 44 9 88t33 90t59 81t92.5 57t129.5 22q71 0 128.5 -22t92.5 -57t58.5 -81t33 -90t9.5 -88t-9.5 -87.5t-33 -89t-59 -79.5 t-92.5 -56t-128 -22q-72 0 -129.5 22t-92.5 56t-59 79.5t-33 89t-9 87.5zM1294 324q0 -19 4.5 -38t23.5 -39t50 -20q30 0 48.5 20t23 39t4.5 38q0 14 -3 28t-10 31t-23.5 28t-39.5 11q-24 0 -40.5 -11t-24 -28t-10.5 -31t-3 -28z" />
<glyph unicode="&#x26;" horiz-adv-x="1497" d="M164 410q0 131 60.5 228.5t152.5 143.5q-125 140 -125 305q0 67 23.5 130.5t69 117t122 86.5t172.5 33q91 0 163.5 -31t116 -82.5t66.5 -114.5t23 -132q0 -200 -193 -363q19 -20 74.5 -81t93.5 -101q39 102 57 219l267 -51q-22 -223 -111 -398q31 -34 97.5 -104.5 t80.5 -85.5l-207 -188l-149 153q-150 -121 -385 -121q-102 1 -190.5 38.5t-149 98t-95 139t-34.5 161.5zM467 422q0 -74 53 -119t125 -45q102 0 172 49q-199 209 -242 256q-50 -24 -78 -62.5t-30 -78.5zM543 1090q0 -76 82 -154q92 70 92 156q0 36 -23 64t-61 28 q-48 0 -69 -30t-21 -64z" />
<glyph unicode="'" horiz-adv-x="462" d="M82 1438h299l-49 -523h-201z" />
<glyph unicode="(" horiz-adv-x="681" d="M61 606q0 531 351 1030l209 -127q-261 -480 -261 -901q0 -435 261 -915l-209 -125q-351 493 -351 1038z" />
<glyph unicode=")" horiz-adv-x="681" d="M61 -307q261 480 261 915q0 421 -261 901l209 127q351 -499 351 -1030q0 -545 -351 -1038z" />
<glyph unicode="*" horiz-adv-x="991" d="M123 952l164 105l-164 106l94 164l174 -90l10 197h189l10 -197l174 90l94 -164l-163 -106l163 -105l-94 -164l-174 91l-10 -197h-189l-10 197l-174 -91z" />
<glyph unicode="+" horiz-adv-x="1142" d="M164 571v244h285v285h245v-285h285v-244h-285v-284h-245v284h-285z" />
<glyph unicode="," horiz-adv-x="694" d="M164 156q0 73 53.5 125.5t124.5 52.5q97 0 142.5 -57t45.5 -138q0 -95 -75.5 -253t-149.5 -242l-137 77q37 63 73.5 145t43.5 126q-52 11 -86.5 57t-34.5 107z" />
<glyph unicode="-" horiz-adv-x="913" d="M164 481v248h586v-248h-586z" />
<glyph unicode="." horiz-adv-x="686" d="M164 166q0 74 53.5 127t126.5 53q74 0 126 -52.5t52 -127.5q0 -74 -52 -126t-126 -52q-73 0 -126.5 52.5t-53.5 125.5z" />
<glyph unicode="/" horiz-adv-x="847" d="M61 0l478 1434h247l-475 -1434h-250z" />
<glyph unicode="0" horiz-adv-x="1320" d="M123 702q0 90 15.5 181t55 185.5t98.5 166.5t154 118t213 46q99 0 182.5 -31.5t141 -87t100.5 -124.5t67.5 -149t36 -155.5t11.5 -149.5q0 -76 -11.5 -153.5t-36 -159.5t-67.5 -152.5t-100.5 -127t-141 -89t-182.5 -32.5q-118 0 -213 47t-154 120.5t-98.5 170.5t-55 190 t-15.5 186zM434 702q0 -38 4 -84t18.5 -110t37.5 -114t66 -86t99 -36q47 0 85 24.5t61 65.5t39.5 87t24.5 97.5t11 88.5t3 67q0 38 -4 82t-18.5 105t-37.5 108.5t-65.5 81t-98.5 33.5t-99 -33.5t-66 -81t-37.5 -108.5t-18.5 -105t-4 -82z" />
<glyph unicode="1" horiz-adv-x="880" d="M82 1051l487 338h127v-1389h-311v924l-166 -93z" />
<glyph unicode="2" horiz-adv-x="1107" d="M61 18l523 781q94 133 94 202q0 51 -30.5 83t-98.5 32q-125 0 -297 -166l-186 199q235 252 481 252q94 0 173.5 -25.5t140 -75t93.5 -128.5t29 -179q-3 -79 -50.5 -181.5t-119.5 -199.5l-225 -317h360v-295h-880z" />
<glyph unicode="3" horiz-adv-x="1132" d="M82 182l180 215q59 -58 142 -99.5t141 -41.5q68 0 116 37.5t48 105.5q0 72 -48.5 114t-115.5 42h-189v276h189q67 0 115.5 43t48.5 115q0 68 -48 106t-116 38q-58 0 -140.5 -40.5t-140.5 -95.5l-180 213q212 199 461 199q109 0 194 -29.5t134.5 -74t82 -103.5 t43.5 -110.5t11 -102.5q0 -87 -39.5 -169t-112.5 -126q72 -34 112 -121.5t40 -173.5q0 -51 -11 -102.5t-43.5 -110t-82 -103t-134.5 -74t-194 -29.5q-248 0 -463 202z" />
<glyph unicode="4" horiz-adv-x="1136" d="M61 260v182l596 949h246v-842h172v-289h-172v-260h-317v260h-525zM438 549h148v227z" />
<glyph unicode="5" horiz-adv-x="1187" d="M123 229l211 189q60 -74 125.5 -109t120.5 -35q82 0 130 53.5t48 125.5q0 71 -47.5 122.5t-132.5 51.5h-359v764h762v-287h-438v-201h35q113 0 201 -30.5t140.5 -77.5t86.5 -110.5t46.5 -122t12.5 -118.5q0 -50 -12.5 -105.5t-47 -119.5t-86.5 -114t-140.5 -83.5 t-200.5 -33.5q-265 0 -455 241z" />
<glyph unicode="6" horiz-adv-x="1202" d="M123 463q0 118 25 229t70.5 202t103 171t127.5 145t139 115t143 90l154 -233q-166 -92 -320 -273q34 6 74 6q87 -5 157.5 -29t117 -61.5t80 -82.5t51.5 -98t26 -101t8 -97t-11.5 -103t-45 -119.5t-84 -116t-138 -85t-198.5 -34.5t-199 36t-139 89.5t-84.5 121t-45 123.5 t-11.5 105zM428 455q0 -73 46 -126t128 -53q80 0 126 53t46 126q0 72 -44.5 124t-127.5 52q-82 0 -126.5 -50.5t-47.5 -125.5z" />
<glyph unicode="7" horiz-adv-x="1026" d="M61 1104v287h895l9 -17l-543 -1374h-326l430 1104h-465z" />
<glyph unicode="8" horiz-adv-x="1177" d="M123 981q0 41 8.5 84t28 91.5t55.5 90t85 76t124 54.5t166 20q108 0 193.5 -29.5t135.5 -74.5t82 -102.5t43 -109.5t9 -100q-2 -71 -40 -153.5t-120 -133.5q83 -47 121.5 -126t38.5 -158q0 -50 -11 -102t-43 -111t-81.5 -104t-134.5 -75t-193 -30q-91 0 -165.5 20.5 t-123.5 55.5t-84.5 77.5t-54 91.5t-27 91.5t-8.5 83.5q0 76 43.5 164.5t108.5 123.5q-73 37 -114.5 113t-41.5 172zM428 408q0 -68 48 -106t114 -38q65 0 112.5 39.5t47.5 104.5q0 68 -47 106.5t-113 38.5t-114 -38.5t-48 -106.5zM428 981q0 -68 48 -106.5t114 -38.5 t113 38.5t47 106.5q0 67 -47 103t-113 36q-67 0 -114.5 -36t-47.5 -103z" />
<glyph unicode="9" horiz-adv-x="1202" d="M123 944q0 49 11.5 103.5t45 119.5t84 116t138 85.5t198.5 34.5t199 -36t139 -89.5t84.5 -121t45 -123.5t11.5 -105q0 -141 -37 -272t-96 -231.5t-140 -189t-163 -150t-172 -110.5l-154 234q167 92 320 272q-34 -6 -74 -6q-87 5 -157.5 29t-117 61.5t-80 82.5t-51.5 98 t-26 101t-8 97zM428 936q0 -72 44.5 -124t127.5 -52q82 0 126.5 50.5t47.5 125.5q0 73 -46 125.5t-128 52.5q-80 0 -126 -52.5t-46 -125.5z" />
<glyph unicode=":" horiz-adv-x="686" d="M164 166q0 74 53.5 127t126.5 53q74 0 126 -52.5t52 -127.5q0 -74 -52 -126t-126 -52q-73 0 -126.5 52.5t-53.5 125.5zM164 856q0 74 53.5 127t126.5 53q74 0 126 -52.5t52 -127.5q0 -74 -52 -126t-126 -52q-73 0 -126.5 52.5t-53.5 125.5z" />
<glyph unicode=";" horiz-adv-x="694" d="M164 156q0 73 53.5 125.5t124.5 52.5q97 0 142.5 -57t45.5 -138q0 -95 -75.5 -253t-149.5 -242l-137 77q37 63 73.5 145t43.5 126q-52 11 -86.5 57t-34.5 107zM164 854q0 74 53.5 127t126.5 53q74 0 126 -52.5t52 -127.5q0 -74 -52 -126t-126 -52q-73 0 -126.5 52.5 t-53.5 125.5z" />
<glyph unicode="&#x3c;" horiz-adv-x="923" d="M61 541v114l668 404l133 -236l-356 -225l356 -225l-133 -238z" />
<glyph unicode="=" horiz-adv-x="1044" d="M164 360v238h717v-238h-717zM164 788v242h717v-242h-717z" />
<glyph unicode="&#x3e;" horiz-adv-x="923" d="M61 373l357 225l-357 225l134 236l667 -404v-114l-667 -406z" />
<glyph unicode="?" horiz-adv-x="1187" d="M164 1196q115 143 224.5 201.5t250.5 58.5q171 0 278 -96t107 -270q0 -68 -27.5 -136.5t-66.5 -121t-78 -98t-66.5 -81.5t-27.5 -57v-166h-295v170q0 64 25.5 121t61.5 99.5t72 82.5t61.5 87.5t25.5 96.5q0 18 -5.5 36t-27.5 36.5t-58 18.5q-66 0 -118.5 -32.5 t-147.5 -125.5zM442 147q0 72 49.5 121t122.5 49q71 0 121.5 -49.5t50.5 -120.5q0 -73 -50.5 -122.5t-121.5 -49.5q-75 0 -123.5 47t-48.5 125z" />
<glyph unicode="@" horiz-adv-x="2347" d="M125 375q-1 239 73.5 445t211 355.5t337.5 234.5t441 85q234 0 429.5 -75.5t328 -207.5t205.5 -312.5t73 -389.5q0 -98 -16.5 -193.5t-56.5 -189.5t-98.5 -165t-150 -115t-204.5 -44q-82 0 -148 36.5t-104 103.5q-123 -97 -289 -97q-115 0 -208 36t-150.5 92.5t-96 131 t-54 146.5t-15.5 145q0 60 11.5 120.5t35 124t65.5 117.5t97.5 97t136.5 67.5t178 24.5q166 0 281 -88l24 72h189v-789q2 -44 18.5 -69t61.5 -25q97 0 159 129.5t62 321.5q0 157 -52 291.5t-148 233.5t-242.5 155.5t-327.5 56.5q-369 0 -581.5 -233t-207.5 -629 q1 -95 26.5 -188.5t80.5 -189t135 -178.5t199.5 -156t265.5 -122l-113 -231q-283 95 -478.5 259t-289 367t-94.5 439zM905 395q0 -29 5.5 -63t22.5 -79.5t44 -81t76.5 -60.5t113.5 -25q137 0 209 109v405q-35 46 -89.5 77.5t-119.5 31.5q-54 0 -98 -17.5t-71 -46.5 t-46.5 -62.5t-29 -71t-13.5 -65t-4 -51.5z" />
<glyph unicode="A" d="M61 0l680 1446h29l680 -1446h-367l-125 299h-405l-125 -299h-367zM659 557h191l-94 229z" />
<glyph unicode="B" horiz-adv-x="1394" d="M205 0v1434h549q114 0 205.5 -27t149 -71t95 -102.5t53 -117.5t15.5 -121q0 -77 -53 -160t-132 -116q81 -31 133 -109.5t52 -173.5q0 -62 -15.5 -120.5t-53 -117t-95 -101.5t-148.5 -70t-206 -27h-549zM530 305h244q50 0 85.5 15t51.5 38.5t22.5 42.5t6.5 35 q0 20 -6 39.5t-21.5 43t-50 38.5t-84.5 16h-248v-268zM530 846h248q49 1 84 18.5t50.5 43.5t21.5 47t6 40q0 16 -6.5 35.5t-22.5 43.5t-51.5 40t-85.5 16h-244v-284z" />
<glyph unicode="C" horiz-adv-x="1533" d="M123 719q0 67 10.5 135t35.5 141t62.5 139t95.5 125t129.5 102t169 68t210.5 25q175 0 313 -73.5t262 -213.5l-219 -211q-64 77 -166 133t-190 56q-68 0 -125 -18.5t-95.5 -47.5t-68 -68.5t-46 -79t-27 -82t-14 -73.5t-3.5 -57t3.5 -57t14 -73.5t27 -81.5t46.5 -78.5 t68.5 -68.5t95.5 -47t126 -18q91 0 193.5 49t180.5 121l189 -225q-258 -258 -565 -258q-113 0 -210.5 25t-169.5 67.5t-129.5 101t-95 124t-62.5 139t-35.5 142.5t-10.5 138z" />
<glyph unicode="D" horiz-adv-x="1554" d="M205 0v1434h516q113 0 210.5 -24t169 -65t129 -98t94.5 -120.5t62 -135t35.5 -138.5t10.5 -134q0 -98 -21 -193t-73 -192t-130.5 -169.5t-204 -118.5t-282.5 -46h-516zM530 305h191q68 0 125 17.5t95.5 45.5t68 66.5t46 76.5t27 79.5t14 72t3.5 56.5q0 32 -5.5 68 t-18.5 85t-41 92.5t-67.5 82t-103.5 61t-143 22.5h-191v-825z" />
<glyph unicode="E" horiz-adv-x="1318" d="M205 0v1434h991v-306h-664v-268h519v-305h-519v-250h664v-305h-991z" />
<glyph unicode="F" horiz-adv-x="1316" d="M205 0v1434h989v-306h-664v-268h521v-305h-521v-555h-325z" />
<glyph unicode="G" horiz-adv-x="1503" d="M123 719q0 67 10.5 135t35.5 141t62.5 139t95.5 125t129.5 102t169 68t210.5 25q167 0 299 -64t245 -186l-202 -221q-65 67 -162.5 114.5t-179.5 47.5q-68 0 -125 -18t-95.5 -47t-68 -68t-46 -78t-27 -81t-14 -73t-3.5 -57q0 -27 3.5 -58t14 -75t27 -84.5t46 -81.5 t68 -71t95.5 -49t125 -19q53 0 111 16.5t93 42.5v141h-272v301h602v-583q-221 -221 -534 -221q-113 0 -210.5 25t-169.5 67.5t-129.5 101t-95 124t-62.5 139t-35.5 142.5t-10.5 138z" />
<glyph unicode="H" horiz-adv-x="1595" d="M205 0v1434h330v-574h530v574h326v-1434h-326v555h-530v-555h-330z" />
<glyph unicode="I" horiz-adv-x="737" d="M205 0v1434h327v-1434h-327z" />
<glyph unicode="J" horiz-adv-x="1312" d="M41 446l291 107q81 -252 237 -252q47 0 84 14t58.5 39.5t35.5 51.5t20 60t7.5 54.5t1.5 44.5v869h332v-869q0 -78 -13.5 -152t-50.5 -153.5t-94.5 -137.5t-154 -96t-220.5 -38q-119 0 -213.5 36t-157 101t-102 144t-61.5 177z" />
<glyph unicode="K" horiz-adv-x="1525" d="M205 0v1434h330v-545l475 545h385l6 -21l-608 -674l651 -719l-8 -20h-381l-520 590v-590h-330z" />
<glyph unicode="L" horiz-adv-x="1175" d="M205 0v1434h330v-1129h518v-305h-848z" />
<glyph unicode="M" horiz-adv-x="2072" d="M61 0l541 1442h25l409 -817l410 817h24l541 -1442h-348l-238 694l-376 -706h-25l-377 706l-237 -694h-349z" />
<glyph unicode="N" horiz-adv-x="1597" d="M205 0v1444l22 8l838 -741v723h328v-1438l-23 -8l-835 749v-737h-330z" />
<glyph unicode="O" horiz-adv-x="1669" d="M123 719q0 67 10.5 135.5t35.5 142t62.5 139.5t95.5 125.5t129.5 102.5t169 68.5t210.5 25.5q156 0 281.5 -48.5t203.5 -125t130.5 -176.5t73.5 -196.5t21 -192.5q0 -69 -10.5 -138t-35.5 -143t-62 -140t-94.5 -125.5t-129 -102.5t-168.5 -68t-210 -25t-210.5 25 t-169.5 68t-129.5 102.5t-95 125.5t-62.5 140t-35.5 143t-10.5 138zM457 719q0 -32 5.5 -69.5t18.5 -89.5t41 -98.5t67.5 -87t103.5 -65t143 -24.5q68 0 124.5 18.5t94.5 48.5t67.5 70.5t46 80.5t26.5 83.5t13.5 74.5t3.5 58q0 40 -7 86t-31 110t-62.5 113.5t-110 85 t-165.5 35.5t-166.5 -35.5t-111 -85t-63 -113t-31.5 -110t-7 -86.5z" />
<glyph unicode="P" horiz-adv-x="1398" d="M205 0v1434h553q114 0 205.5 -31t148.5 -79.5t95.5 -112.5t53.5 -126t15 -124q0 -138 -73.5 -250t-186 -171t-234.5 -59h-247v-481h-330zM535 788h239q40 1 72 14.5t50.5 32.5t30.5 43.5t16.5 44.5t4.5 38q0 26 -8 52t-26.5 54t-56 45.5t-89.5 17.5h-233v-342z" />
<glyph unicode="Q" horiz-adv-x="1726" d="M123 719q0 67 10.5 135.5t35.5 142t62.5 139.5t95.5 125.5t129.5 102.5t169 68.5t210.5 25.5q156 0 281.5 -48.5t203.5 -125t130.5 -176.5t73.5 -196.5t21 -192.5q0 -165 -62.5 -326.5t-195.5 -269.5l336 -406l-4 -10h-369l-247 287q-87 -17 -168 -17q-113 0 -210.5 25 t-169.5 68t-129.5 102.5t-95 125.5t-62.5 140t-35.5 143t-10.5 138zM457 719q0 -32 5.5 -69.5t18.5 -89.5t41 -98.5t67.5 -87t103.5 -65t143 -24.5q68 0 124.5 18.5t94.5 48.5t67.5 70.5t46 80.5t26.5 83.5t13.5 74.5t3.5 58q0 40 -7 86t-31 110t-62.5 113.5t-110 85 t-165.5 35.5t-166.5 -35.5t-111 -85t-63 -113t-31.5 -110t-7 -86.5z" />
<glyph unicode="R" horiz-adv-x="1394" d="M205 0v1434h549q114 0 205.5 -31t148.5 -79.5t95.5 -112.5t53.5 -126t15 -124q0 -147 -71.5 -255.5t-192.5 -168.5l252 -537h-359l-225 481h-146v-481h-325zM530 788h242q49 1 85 20.5t53.5 48t25.5 55t8 49.5q0 26 -8 52t-26.5 54t-56 45.5t-89.5 17.5h-234v-342z" />
<glyph unicode="S" horiz-adv-x="1343" d="M123 139l145 275q255 -123 410 -123q81 0 138.5 35t57.5 88q0 26 -13.5 48.5t-33 38.5t-55 32.5t-65 26.5t-78.5 26q-173 57 -246 96q-190 101 -216 281q-5 31 -5 65q0 197 131.5 312.5t341.5 115.5q271 0 551 -139l-121 -279q-271 109 -410 109q-72 0 -118 -25 q-45 -24 -45 -78q0 -14 7 -29q6 -13 18 -25t23.5 -22t32.5 -20.5t36.5 -18t44 -18t46 -17t51.5 -18.5t52 -18q71 -25 121.5 -46.5t110.5 -59.5t97.5 -80t63 -105t25.5 -139q0 -190 -149.5 -317t-381.5 -127q-152 0 -286.5 38.5t-280.5 116.5z" />
<glyph unicode="T" horiz-adv-x="1267" d="M92 1128v306h1084v-306h-379v-1128h-330v1128h-375z" />
<glyph unicode="U" horiz-adv-x="1515" d="M184 563v871h328v-871q0 -34 12 -76t37.5 -88.5t77 -78t119.5 -31.5q55 0 99.5 21.5t70.5 53t43.5 70.5t23.5 71t6 58v871h330v-871q0 -77 -18 -154t-61.5 -154.5t-107 -136t-163.5 -95.5t-223 -37t-223 37t-164 95.5t-107.5 136t-61.5 154.5t-18 154z" />
<glyph unicode="V" d="M61 1434h367l328 -787l327 787h367l-680 -1446h-29z" />
<glyph unicode="W" horiz-adv-x="2240" d="M61 1434h367l328 -734l348 744h33l348 -744l327 734h367l-676 -1442h-28l-355 721l-354 -721h-29z" />
<glyph unicode="X" horiz-adv-x="1400" d="M61 0l459 717l-459 717h379l260 -430l261 430h378l-460 -717l460 -717h-378l-261 428l-260 -428h-379z" />
<glyph unicode="Y" horiz-adv-x="1427" d="M61 1434h363l289 -482l288 482h365l-489 -797v-637h-326v633z" />
<glyph unicode="Z" horiz-adv-x="1363" d="M123 16l604 1114h-545v304h1053l6 -17l-604 -1112h592v-305h-1098z" />
<glyph unicode="[" horiz-adv-x="567" d="M61 -420v2022h445v-238h-160v-1546h160v-238h-445z" />
<glyph unicode="\" horiz-adv-x="847" d="M61 1434h248l477 -1434h-249z" />
<glyph unicode="]" horiz-adv-x="567" d="M61 -182h160v1546h-160v238h445v-2022h-445v238z" />
<glyph unicode="^" horiz-adv-x="1404" d="M123 879l573 573h13l573 -573l-170 -170l-410 368l-409 -368z" />
<glyph unicode="_" horiz-adv-x="862" d="M10 -6h842v-180h-842v180z" />
<glyph unicode="`" horiz-adv-x="1044" d="M199 1430l143 202l340 -264l-115 -168z" />
<glyph unicode="a" horiz-adv-x="1282" d="M61 0l568 1204h24l568 -1204h-338l-97 221h-294l-93 -221h-338zM573 412h132l-66 155z" />
<glyph unicode="b" horiz-adv-x="1165" d="M164 0v1196h450q96 0 170.5 -20.5t121.5 -54t77.5 -81t42.5 -97.5t12 -107q0 -59 -37 -131t-94 -99q64 -27 99.5 -97t35.5 -138q0 -51 -12.5 -100t-43.5 -99t-78 -87.5t-123 -61t-171 -23.5h-450zM467 291h162q31 0 52.5 10.5t31 26.5t13 28t3.5 21q0 13 -3 26t-12 29.5 t-29.5 27t-49.5 11.5h-168v-180zM467 725h168q29 1 49.5 12t29.5 28.5t12 32t3 29.5q0 9 -3.5 20t-13 25.5t-31 24.5t-52.5 10h-162v-182z" />
<glyph unicode="c" horiz-adv-x="1271" d="M123 604q0 54 8.5 110t29 116.5t50.5 115t77 104.5t105 86t137.5 57t171.5 21q144 0 260.5 -61.5t227.5 -181.5l-209 -209q-68 75 -146.5 114t-150.5 39q-100 0 -176 -86t-76 -225q0 -21 4 -48.5t14 -65.5t30.5 -73t48.5 -66t74 -49.5t102 -18.5q67 0 146.5 41t152.5 104 l182 -221q-225 -225 -484 -225q-92 0 -171.5 21.5t-137.5 58t-105 87t-77 106t-50.5 117t-29 119t-8.5 113.5z" />
<glyph unicode="d" horiz-adv-x="1296" d="M164 0v1198h430q107 0 196 -26.5t151 -72t108.5 -103.5t73 -125t39 -131t12.5 -128q0 -56 -8.5 -113t-29 -117.5t-51 -115.5t-77.5 -104t-105.5 -84.5t-137.5 -56.5t-171 -21h-430zM473 293h121q48 0 88 14t67 35.5t48 51.5t33 59.5t19.5 61.5t10 55t2.5 42q0 28 -5 60.5 t-22.5 76.5t-45 78t-78.5 58t-117 24h-121v-616z" />
<glyph unicode="e" horiz-adv-x="1114" d="M164 0v1196h827v-291h-518v-157h404v-293h-404v-162h518v-293h-827z" />
<glyph unicode="f" horiz-adv-x="1114" d="M164 0v1196h827v-291h-518v-157h404v-293h-404v-455h-309z" />
<glyph unicode="g" horiz-adv-x="1284" d="M123 606q0 78 16.5 157t59 162t106 147t166 104.5t229.5 40.5q142 0 250.5 -55t210.5 -167l-198 -202q-52 55 -126.5 91t-136.5 36q-67 0 -118 -25.5t-78.5 -62t-44.5 -83t-22 -80.5t-5 -63q0 -30 5 -65t22 -84.5t44.5 -87.5t78.5 -65.5t118 -27.5q51 0 136 35v99h-201 v260h510v-500q-202 -188 -445 -188q-127 0 -229.5 41.5t-166 106t-105.5 149.5t-59 166t-17 161z" />
<glyph unicode="h" horiz-adv-x="1308" d="M164 0v1196h313v-448h357v448h311v-1196h-311v455h-357v-455h-313z" />
<glyph unicode="i" horiz-adv-x="641" d="M164 0v1188h313v-1188h-313z" />
<glyph unicode="j" horiz-adv-x="1083" d="M20 379l277 108q26 -88 73 -142t109 -54q131 0 131 178v727h310v-727q0 -64 -11 -125t-42 -126.5t-78.5 -114t-127.5 -80t-182 -31.5q-347 0 -459 387z" />
<glyph unicode="k" horiz-adv-x="1384" d="M164 0v1198h309v-471l430 469h389l6 -14l-536 -568l561 -600l-6 -14h-383l-461 502v-502h-309z" />
<glyph unicode="l" horiz-adv-x="1015" d="M164 0v1198h313v-905h457v-293h-770z" />
<glyph unicode="m" horiz-adv-x="1757" d="M61 0l457 1206h23l338 -643l338 643h22l457 -1206h-332l-176 492l-299 -502h-21l-299 502l-176 -492h-332z" />
<glyph unicode="n" horiz-adv-x="1308" d="M164 0v1186l16 10l651 -557v557h314v-1196l-19 -6l-651 551v-545h-311z" />
<glyph unicode="o" horiz-adv-x="1404" d="M123 604q0 78 17 156.5t59 161.5t105.5 146t166 103.5t229.5 40.5q129 0 232.5 -40.5t167 -103.5t106 -146t59.5 -161.5t17 -156.5q0 -66 -12.5 -133t-38.5 -138t-72 -132t-108 -110t-152.5 -77t-198.5 -28q-128 0 -230 40.5t-165.5 104.5t-105.5 148t-59 164.5 t-17 160.5zM430 604q0 -23 4 -51t13.5 -67t29.5 -73.5t48 -65t73.5 -48.5t101.5 -18t101.5 18t73.5 48.5t48 65t29 73.5t13 66.5t4 51.5q0 23 -4 50.5t-13 65t-29 71t-48 63t-73.5 47t-101.5 17.5t-101.5 -17.5t-73.5 -47t-48 -63t-29.5 -71t-13.5 -65t-4 -50.5z" />
<glyph unicode="p" horiz-adv-x="1173" d="M164 0v1196h454q96 0 173 -25.5t124.5 -66t79 -94t44 -105t12.5 -104.5q0 -115 -61 -208.5t-153.5 -142.5t-193.5 -49h-170v-401h-309zM473 694h162q30 0 52.5 12t34 30t16.5 34.5t5 30.5q0 39 -26.5 72.5t-87.5 33.5h-156v-213z" />
<glyph unicode="q" horiz-adv-x="1421" d="M123 604q0 78 17 156.5t59 161.5t105.5 146t166 103.5t229.5 40.5q129 0 232.5 -40.5t167 -103.5t106 -146t59.5 -161.5t17 -156.5q0 -132 -49 -264.5t-152 -224.5l258 -297l-6 -17h-354l-168 195q-55 -10 -111 -10q-128 0 -230 40.5t-165.5 104.5t-105.5 148t-59 164.5 t-17 160.5zM430 604q0 -23 4 -51t13.5 -67t29.5 -73.5t48 -65t73.5 -48.5t101.5 -18t101.5 18t73.5 48.5t48 65t29 73.5t13 66.5t4 51.5q0 23 -4 50.5t-13 65t-29 71t-48 63t-73.5 47t-101.5 17.5t-101.5 -17.5t-73.5 -47t-48 -63t-29.5 -71t-13.5 -65t-4 -50.5z" />
<glyph unicode="r" horiz-adv-x="1214" d="M164 0v1196h454q96 0 173 -25.5t124.5 -66t79 -94t44 -105t12.5 -104.5q0 -104 -49.5 -189.5t-131.5 -140.5l222 -471h-340l-189 401h-90v-401h-309zM473 694h162q30 0 52.5 12t34 30t16.5 34.5t5 30.5q0 39 -26.5 72.5t-87.5 33.5h-156v-213z" />
<glyph unicode="s" horiz-adv-x="1157" d="M123 125l131 254q83 -40 181.5 -70t170.5 -33h10q46 0 74 17q32 18 31 53q-1 26 -33 48q-32 20 -81.5 37.5t-109.5 37t-120 50t-109.5 71.5t-80.5 108t-31 152q0 168 110 264t287 96q66 0 183.5 -29.5t267.5 -97.5l-117 -270q-259 107 -346 107q-31 0 -50 -17.5 t-22 -46.5q0 -28 24.5 -50.5t64 -36.5t90.5 -32t103.5 -35t103.5 -47t90.5 -67.5t64 -97t24.5 -134.5q0 -150 -124.5 -260t-315.5 -110q-122 0 -233 33.5t-238 105.5z" />
<glyph unicode="t" horiz-adv-x="1064" d="M82 905v291h901v-291h-299v-905h-311v905h-291z" />
<glyph unicode="u" horiz-adv-x="1198" d="M123 465v731h311v-731q0 -23 7.5 -51.5t24.5 -60t51.5 -53t80.5 -21.5t80.5 21.5t51.5 53t24.5 60t7.5 51.5v731h313v-731q0 -63 -15 -127t-51.5 -127.5t-89.5 -112.5t-136 -79.5t-185 -30.5q-101 0 -183.5 30.5t-135.5 79.5t-89 112.5t-51.5 127.5t-15.5 127z" />
<glyph unicode="v" horiz-adv-x="1282" d="M61 1196h338l240 -567l244 567h338l-570 -1204h-20z" />
<glyph unicode="w" horiz-adv-x="1953" d="M61 1196h342l254 -553l310 567h20l309 -567l254 553h342l-577 -1206h-23l-315 610l-315 -610h-23z" />
<glyph unicode="x" horiz-adv-x="1212" d="M61 0l375 598l-375 598h357l188 -322l189 322h356l-375 -598l375 -598h-356l-189 322l-188 -322h-357z" />
<glyph unicode="y" horiz-adv-x="1247" d="M61 1196h355l205 -358l210 358h355l-408 -676v-520h-309v518z" />
<glyph unicode="z" horiz-adv-x="1226" d="M82 23l530 884h-444v289h967l10 -22l-527 -881h453v-293h-981z" />
<glyph unicode="{" horiz-adv-x="671" d="M61 487v209h60q24 0 42.5 23.5t18.5 60.5v443q0 73 18.5 133t46 97t64.5 65t69 41t65.5 21t48.5 9.5t22 1.5h94v-235h-45q-6 0 -14 -1t-24.5 -9.5t-29 -22.5t-22.5 -44t-10 -71v-428q0 -64 -31.5 -114.5t-73.5 -73.5q40 -23 72.5 -74t32.5 -112v-429q0 -41 10 -71 t22 -44.5t28.5 -22.5t25 -9.5t14.5 -1.5h45v-236h-94q-7 0 -22 1.5t-48.5 9.5t-65.5 21.5t-69 41.5t-64.5 65t-46 97t-18.5 133v442q0 37 -18 59.5t-41 24.5h-62z" />
<glyph unicode="|" horiz-adv-x="466" d="M123 -412v1991h221v-1991h-221z" />
<glyph unicode="}" horiz-adv-x="671" d="M61 -172h45q6 0 14.5 1.5t25 9.5t29 22.5t22.5 44.5t10 71v429q0 61 32 112t72 74q-41 23 -72.5 73.5t-31.5 114.5v428q0 41 -10 71t-23 44t-29.5 22.5t-24.5 9.5t-14 1h-45v235h95q7 0 21.5 -1.5t48.5 -9.5t66 -21t69 -41t64 -65t45.5 -97t18.5 -133v-443 q0 -37 19 -60.5t43 -23.5h59v-209h-61q-23 -2 -41.5 -24.5t-18.5 -59.5v-442q0 -73 -18.5 -133t-45.5 -97t-64 -65t-69.5 -41.5t-65.5 -21.5t-48 -9.5t-22 -1.5h-95v236z" />
<glyph unicode="~" horiz-adv-x="1290" d="M123 545q147 262 364 262q35 0 73 -12t56.5 -21.5t59.5 -32.5q84 -49 135 -49q75 0 178 135l178 -129q-73 -134 -166 -201t-192 -67q-95 0 -213 74q-88 45 -117 45q-84 0 -180 -127z" />
<glyph unicode="&#xa1;" horiz-adv-x="724" d="M205 156l37 417h237l37 -417v-566h-311v566zM207 889q0 67 45 111t113 44q66 0 110.5 -44t44.5 -111q0 -66 -44.5 -112t-110.5 -46q-67 0 -112.5 46t-45.5 112z" />
<glyph unicode="&#xa2;" horiz-adv-x="1153" d="M123 508q0 63 11.5 125t41 129t74.5 120t118.5 94t166.5 56v160h221v-164q164 -37 305 -188l-184 -203q-57 57 -121 84v-402q50 24 102 76l184 -221q-137 -140 -286 -174v-178h-221v174q-89 14 -161 53.5t-118 91.5t-76.5 116.5t-43.5 126.5t-13 124zM438 514 q0 -134 97 -197v402q-49 -31 -73 -88t-24 -117z" />
<glyph unicode="&#xa3;" horiz-adv-x="1445" d="M82 141q78 142 256 215v389h-102v277h102v72q0 174 105.5 265t269.5 91q136 0 311 -84l-94 -246q-107 45 -201 45q-34 0 -57 -19.5t-23 -58.5v-65h182v-277h-182v-391q34 -4 108 -36.5t115 -32.5q74 -2 139.5 34t110.5 105l201 -152q-78 -141 -187 -207t-266 -69 q-54 -1 -117 25.5t-125 53.5t-114 27q-24 0 -58.5 -8t-90 -40.5t-95.5 -84.5z" />
<glyph unicode="&#xa4;" horiz-adv-x="1359" d="M123 197l186 180q-45 90 -45 207q0 126 51 225l-190 192l154 156l190 -192q93 49 211 49q123 0 215 -53l188 196l154 -156l-195 -194q54 -100 54 -223q0 -117 -41 -207l182 -182l-154 -152l-172 172q-103 -61 -231 -61q-135 0 -231 59l-173 -170zM571 584q0 -24 6.5 -50 t33 -53.5t69.5 -27.5q32 0 55 15t33 38.5t14 42.5t4 35t-4 35t-14 43t-33 39.5t-55 15.5q-43 0 -69.5 -28t-33 -54.5t-6.5 -50.5z" />
<glyph unicode="&#xa5;" horiz-adv-x="1427" d="M61 1434h363l289 -482l288 482h365l-463 -752h168v-211h-194v-137h194v-211h-194v-123h-326v123h-197v211h197v137h-197v211h166z" />
<glyph unicode="&#xa6;" horiz-adv-x="468" d="M123 385h223v-793h-223v793zM123 795v790h223v-790h-223z" />
<glyph unicode="&#xa7;" horiz-adv-x="1259" d="M164 -217l168 215q197 -141 297 -141q50 0 88.5 26.5t38.5 73.5q0 82 -213 193q-334 158 -334 417q0 71 35.5 137.5t81.5 114.5q-38 36 -70.5 107.5t-32.5 146.5q0 66 26 131t76 121.5t135 91.5t191 35q203 0 432 -166l-157 -231q-195 112 -299 112q-40 0 -67.5 -22.5 t-31.5 -65.5q6 -76 168 -157q83 -41 146.5 -81t125 -94.5t95 -121.5t33.5 -142q0 -70 -37 -140.5t-86 -123.5q104 -125 104 -270q0 -113 -58.5 -201t-154 -134t-209.5 -46q-102 0 -203.5 37t-166 81t-121.5 97zM506 584q0 -20 7 -38.5t17 -33t28 -30t32.5 -25.5t38.5 -22.5 t37.5 -19t38.5 -17.5t34 -15q39 49 43 92q-1 32 -41.5 63t-110 65.5t-89.5 47.5q-35 -35 -35 -67z" />
<glyph unicode="&#xa8;" horiz-adv-x="1191" d="M186 1370q0 69 48 117.5t118 48.5q69 0 116.5 -48.5t47.5 -117.5q0 -70 -47.5 -117t-116.5 -47q-71 0 -118.5 47t-47.5 117zM670 1370q0 69 48 117.5t118 48.5q69 0 116 -48.5t47 -117.5q0 -70 -47 -117t-116 -47q-71 0 -118.5 47t-47.5 117z" />
<glyph unicode="&#xa9;" horiz-adv-x="1200" d="M82 930q0 131 67.5 249t188 191.5t262.5 73.5q215 0 366.5 -151.5t151.5 -366.5t-151.5 -366.5t-366.5 -151.5q-98 0 -192 40t-166 108t-116 166t-44 208zM229 926q0 -155 108 -262t263 -107t262 107t107 262t-107 262.5t-262 107.5t-263 -107.5t-108 -262.5zM313 922 q0 -39 9.5 -78t31.5 -78.5t55 -70t84.5 -49.5t114.5 -19q72 0 126 31t104 90l-93 94q-61 -64 -137 -64q-53 0 -90 39.5t-37 104.5q0 64 37 103.5t90 39.5q73 0 135 -70l95 99q-49 59 -103 89.5t-127 30.5q-63 0 -114.5 -19.5t-84.5 -49.5t-55 -69.5t-31.5 -78t-9.5 -75.5z " />
<glyph unicode="&#xaa;" horiz-adv-x="837" d="M82 903q0 57 17 102.5t45 74.5t67 48t81 27t89 8q51 0 100 -10q0 92 -88 92q-62 0 -198 -57l-78 178q153 81 272 84l37 2q77 0 132.5 -20t85 -49.5t46.5 -77t21 -87.5t4 -96v-452h-154l-24 53q-33 -32 -84 -50t-103 -18q-64 0 -114 17.5t-78 43.5t-46 61t-24 65t-6 61z M307 913q0 -24 20 -36.5t50 -12.5q33 0 61.5 13t42.5 32v60q-46 12 -73 12q-101 0 -101 -68z" />
<glyph unicode="&#xab;" horiz-adv-x="1222" d="M61 510v27l388 413l163 -141l-229 -285l229 -288l-163 -142zM610 510v27l387 413l164 -141l-229 -285l229 -288l-164 -142z" />
<glyph unicode="&#xac;" horiz-adv-x="1284" d="M164 436v424h956v-684h-452v260h-504z" />
<glyph unicode="&#xad;" horiz-adv-x="823" d="M123 307v238h577v-238h-577z" />
<glyph unicode="&#xae;" horiz-adv-x="1200" d="M82 930q0 131 67.5 249t188 191.5t262.5 73.5q215 0 366.5 -151.5t151.5 -366.5t-151.5 -366.5t-366.5 -151.5q-98 0 -192 40t-166 108t-116 166t-44 208zM229 926q0 -155 108 -262t263 -107t262 107t107 262t-107 262.5t-262 107.5t-263 -107.5t-108 -262.5zM410 678 v512h204q52 0 91.5 -17.5t60.5 -46t31 -58t10 -58.5q0 -41 -24.5 -83.5t-59.5 -66.5l102 -182h-163l-80 149h-33v-149h-139zM549 965h72q24 1 34.5 15.5t10.5 29.5q0 16 -11.5 31.5t-38.5 15.5h-67v-92z" />
<glyph unicode="&#xaf;" horiz-adv-x="1056" d="M231 1223v221h617v-221h-617z" />
<glyph unicode="&#xb0;" horiz-adv-x="675" d="M61 1178q0 115 80.5 195.5t196.5 80.5q115 0 195.5 -78.5t80.5 -197.5q0 -115 -81 -196t-195 -81q-116 0 -196.5 80.5t-80.5 196.5zM238 1178q0 -43 29.5 -71t70.5 -28q38 0 66 28t28 71q0 40 -28 67t-66 27q-40 0 -70 -28.5t-30 -65.5z" />
<glyph unicode="&#xb1;" horiz-adv-x="1132" d="M164 2v234h805v-234h-805zM164 571v244h285v285h245v-285h285v-244h-285v-198h-245v198h-285z" />
<glyph unicode="&#xb2;" horiz-adv-x="624" d="M61 1509q115 140 258 140q103 0 163.5 -62t60.5 -151q0 -83 -82 -193l-86 -117h157v-159h-454l-6 16l252 363q36 53 36 88q0 17 -13.5 32t-35.5 15q-30 0 -59.5 -16.5t-79.5 -61.5z" />
<glyph unicode="&#xb3;" horiz-adv-x="577" d="M41 1055l100 110q55 -53 138 -53q29 0 50 15.5t21 39.5q0 31 -20.5 47.5t-50.5 16.5h-113v137h113q29 0 50 17.5t21 48.5q0 25 -21 40t-50 15q-27 0 -68.5 -16.5t-69.5 -40.5l-96 110q105 105 234 105q68 0 117.5 -22t74 -57t35 -68t10.5 -66t-17 -72t-46 -64 q63 -50 63 -131q0 -31 -10.5 -64t-35 -68.5t-74 -58t-117.5 -22.5q-129 0 -238 101z" />
<glyph unicode="&#xb4;" horiz-adv-x="1044" d="M281 1370l340 264l143 -202l-369 -230z" />
<glyph unicode="&#xb6;" horiz-adv-x="1503" d="M82 1006q0 57 12 113t42.5 114.5t76 102.5t120 72t167.5 28h839v-222h-137v-1622h-266v1622h-180v-1622h-267v983q-90 1 -162 30t-117 73t-74.5 102.5t-41.5 114t-12 111.5z" />
<glyph unicode="&#xb7;" horiz-adv-x="602" d="M123 612q0 76 49.5 126t126.5 50q76 0 128 -50t52 -126q0 -75 -52.5 -127.5t-127.5 -52.5q-76 0 -126 52t-50 128z" />
<glyph unicode="&#xb8;" horiz-adv-x="1134" d="M498 -418l55 152q103 -31 141 -31q30 0 49.5 13.5t20.5 39.5q2 23 -19.5 41.5t-76.5 18.5h-52l-26 26v205h168v-104q101 -3 150.5 -61.5t49.5 -125.5q0 -109 -70.5 -167t-172.5 -58q-106 0 -217 51z" />
<glyph unicode="&#xb9;" horiz-adv-x="466" d="M41 1462l244 174h90v-669h-180v426l-84 -45z" />
<glyph unicode="&#xba;" horiz-adv-x="774" d="M82 1128q0 41 8.5 82.5t31 85t56 76t87.5 53.5t122 21t122 -21t87.5 -53.5t56 -76t31 -85t8.5 -82.5q0 -43 -8.5 -84.5t-31 -84.5t-56 -75t-87.5 -52.5t-122 -20.5t-122 20.5t-87.5 52.5t-56 75t-31 84.5t-8.5 84.5zM121 444v215h530v-215h-530zM299 1128q0 -13 3 -27.5 t11.5 -33t27.5 -30t46 -11.5t46 11.5t27.5 30t11.5 33t3 27.5t-3 27t-11.5 32.5t-27.5 30t-46 11.5t-46 -11.5t-27.5 -30t-11.5 -32.5t-3 -27z" />
<glyph unicode="&#xbb;" horiz-adv-x="1222" d="M61 236l230 288l-230 285l164 141l387 -413v-27l-387 -416zM610 236l230 288l-230 285l164 141l387 -413v-27l-387 -416z" />
<glyph unicode="&#xbc;" horiz-adv-x="1212" d="M41 1266l244 174h90v-670h-180v426l-84 -45zM125 0l717 1434h207l-715 -1434h-209zM604 98v135l301 441h139v-424h95v-152h-95v-96h-170v96h-270zM788 250h86v125z" />
<glyph unicode="&#xbd;" horiz-adv-x="1308" d="M41 1266l244 174h90v-670h-180v426l-84 -45zM125 0l717 1434h207l-715 -1434h-209zM741 543q114 139 258 139q103 0 163.5 -62t60.5 -151q0 -83 -82 -193l-84 -116h155v-160h-454l-6 16l252 363q36 51 36 88q0 17 -13.5 32t-35.5 15q-30 0 -59.5 -16.5t-79.5 -61.5z" />
<glyph unicode="&#xbe;" horiz-adv-x="1296" d="M41 856l100 111q57 -54 138 -54q29 0 50 16t21 40q0 31 -20.5 47t-50.5 16h-113v137h113q29 0 50 17.5t21 48.5q0 25 -21 40t-50 15q-27 0 -68.5 -16.5t-69.5 -40.5l-96 110q105 105 234 105q68 0 117.5 -22t74 -57t35 -68t10.5 -66t-17 -71.5t-46 -63.5q63 -50 63 -131 q0 -31 -10.5 -64t-35 -68.5t-74 -58t-117.5 -22.5q-130 0 -238 100zM201 0l717 1434h206l-714 -1434h-209zM680 98v135l301 441h139v-424h94v-152h-94v-98h-170v98h-270zM864 250h86v125z" />
<glyph unicode="&#xbf;" horiz-adv-x="1187" d="M164 -82q0 68 27.5 136.5t66.5 121t78 98t66.5 81.5t27.5 57v166h295v-170q0 -64 -25.5 -121t-61.5 -100t-72 -83t-61.5 -87.5t-25.5 -96.5q0 -18 5.5 -36t27 -36t57.5 -18q67 0 119.5 32.5t147.5 125.5l188 -176q-115 -143 -224.5 -202t-250.5 -59q-171 0 -278 96.5 t-107 270.5zM401 860q0 73 50.5 122.5t121.5 49.5q75 0 123.5 -47t48.5 -125q0 -72 -49.5 -121t-122.5 -49q-71 0 -121.5 49.5t-50.5 120.5z" />
<glyph unicode="&#xc0;" d="M61 0l680 1446h29l680 -1446h-367l-125 299h-405l-125 -299h-367zM514 1839l143 203l340 -264l-114 -168zM659 557h191l-94 229z" />
<glyph unicode="&#xc1;" d="M61 0l680 1446h29l680 -1446h-367l-125 299h-405l-125 -299h-367zM514 1780l340 264l143 -203l-368 -229zM659 557h191l-94 229z" />
<glyph unicode="&#xc2;" d="M61 0l680 1446h29l680 -1446h-367l-125 299h-405l-125 -299h-367zM416 1778l340 264l340 -264l-115 -168l-225 139l-226 -139zM659 557h191l-94 229z" />
<glyph unicode="&#xc3;" d="M61 0l680 1446h29l680 -1446h-367l-125 299h-405l-125 -299h-367zM362 1716q50 108 120.5 156.5t142.5 48.5q42 0 113.5 -34t113.5 -34q58 0 104 74l166 -102q-50 -108 -122 -157.5t-144 -49.5q-42 0 -110 35t-107 35q-68 0 -111 -74zM659 557h191l-94 229z" />
<glyph unicode="&#xc4;" d="M61 0l680 1446h29l680 -1446h-367l-125 299h-405l-125 -299h-367zM348 1780q0 69 48 117.5t118 48.5q69 0 116.5 -48.5t47.5 -117.5q0 -70 -47.5 -117t-116.5 -47q-71 0 -118.5 47t-47.5 117zM659 557h191l-94 229zM831 1780q0 69 48 117.5t118 48.5q69 0 116.5 -48.5 t47.5 -117.5q0 -70 -47.5 -117t-116.5 -47q-71 0 -118.5 47t-47.5 117z" />
<glyph unicode="&#xc5;" d="M61 0l680 1446h29l680 -1446h-367l-125 299h-405l-125 -299h-367zM539 1819q0 89 64 153t153 64t152 -64t63 -153t-63 -152t-152 -63t-153 63t-64 152zM659 557h191l-94 229zM694 1819q0 -23 18.5 -41.5t43.5 -18.5q23 0 41 18.5t18 41.5q0 25 -18 43t-41 18 q-25 0 -43.5 -18t-18.5 -43z" />
<glyph unicode="&#xc6;" horiz-adv-x="1869" d="M61 0l674 1434h1012v-306h-664v-268h519v-305h-519v-250h664v-305h-991v299h-203l-125 -299h-367zM659 557h97v229z" />
<glyph unicode="&#xc7;" horiz-adv-x="1533" d="M123 719q0 67 10.5 135t35.5 141t62.5 139t95.5 125t129.5 102t169 68t210.5 25q175 0 313 -73.5t262 -213.5l-219 -211q-64 77 -166 133t-190 56q-68 0 -125 -18.5t-95.5 -47.5t-68 -68.5t-46 -79t-27 -82t-14 -73.5t-3.5 -57t3.5 -57t14 -73.5t27 -81.5t46.5 -78.5 t68.5 -68.5t95.5 -47t126 -18q91 0 193.5 49t180.5 121l189 -225q-240 -240 -520 -256v-41q101 -3 150.5 -61.5t49.5 -125.5q0 -109 -70.5 -167t-172.5 -58q-106 0 -217 51l55 152q103 -31 141 -31q30 0 49.5 13.5t20.5 39.5q2 23 -19.5 41.5t-76.5 18.5h-52l-26 26v148 q-129 17 -233 71.5t-169 128.5t-109 167.5t-61.5 182.5t-17.5 179z" />
<glyph unicode="&#xc8;" horiz-adv-x="1318" d="M205 0v1434h991v-306h-664v-268h519v-305h-519v-250h664v-305h-991zM418 1839l143 203l340 -264l-115 -168z" />
<glyph unicode="&#xc9;" horiz-adv-x="1318" d="M205 0v1434h991v-306h-664v-268h519v-305h-519v-250h664v-305h-991zM418 1780l340 264l143 -203l-369 -229z" />
<glyph unicode="&#xca;" horiz-adv-x="1318" d="M205 0v1434h991v-306h-664v-268h519v-305h-519v-250h664v-305h-991zM319 1778l340 264l340 -264l-114 -168l-226 139l-225 -139z" />
<glyph unicode="&#xcb;" horiz-adv-x="1318" d="M205 0v1434h991v-306h-664v-268h519v-305h-519v-250h664v-305h-991zM279 1780q0 69 47.5 117.5t117.5 48.5q69 0 116.5 -48.5t47.5 -117.5q0 -70 -47.5 -117t-116.5 -47q-71 0 -118 47t-47 117zM762 1780q0 69 48 117.5t118 48.5q69 0 116.5 -48.5t47.5 -117.5 q0 -70 -47.5 -117t-116.5 -47q-71 0 -118.5 47t-47.5 117z" />
<glyph unicode="&#xcc;" horiz-adv-x="565" d="M41 1839l143 203l340 -264l-114 -168zM119 0v1434h327v-1434h-327z" />
<glyph unicode="&#xcd;" horiz-adv-x="565" d="M41 1780l340 264l143 -203l-368 -229zM119 0v1434h327v-1434h-327z" />
<glyph unicode="&#xce;" horiz-adv-x="679" d="M0 1778l340 264l340 -264l-115 -168l-225 139l-225 -139zM176 0v1434h328v-1434h-328z" />
<glyph unicode="&#xcf;" horiz-adv-x="813" d="M0 1780q0 69 48 117.5t118 48.5q69 0 116.5 -48.5t47.5 -117.5q0 -70 -47.5 -117t-116.5 -47q-71 0 -118.5 47t-47.5 117zM244 0v1434h327v-1434h-327zM483 1780q0 69 48 117.5t118 48.5q69 0 116.5 -48.5t47.5 -117.5q0 -70 -47.5 -117t-116.5 -47q-71 0 -118.5 47 t-47.5 117z" />
<glyph unicode="&#xd0;" horiz-adv-x="1554" d="M109 600v248h96v586h516q113 0 210.5 -24t169 -65t129 -98t94.5 -120.5t62 -135t35.5 -138.5t10.5 -134q0 -98 -21 -193t-73 -192t-130.5 -169.5t-204 -118.5t-282.5 -46h-516v600h-96zM530 305h191q68 0 125 17.5t95.5 45.5t68 66.5t46 76.5t27 79.5t14 72t3.5 56.5 q0 32 -5.5 68t-18.5 85t-41 92.5t-67.5 82t-103.5 61t-143 22.5h-191v-282h238v-248h-238v-295z" />
<glyph unicode="&#xd1;" horiz-adv-x="1597" d="M205 0v1446l24 6l836 -743v725h328v-1438l-25 -8l-833 749v-737h-330zM418 1716q50 108 120 156.5t142 48.5q42 0 113.5 -34t113.5 -34q59 0 105 74l166 -102q-50 -108 -122.5 -157.5t-144.5 -49.5q-43 0 -110 35t-107 35q-67 0 -110 -74z" />
<glyph unicode="&#xd2;" horiz-adv-x="1669" d="M123 719q0 67 10.5 135.5t35.5 142t62.5 139.5t95.5 125.5t129.5 102.5t169 68.5t210.5 25.5q156 0 281.5 -48.5t203.5 -125t130.5 -176.5t73.5 -196.5t21 -192.5q0 -69 -10.5 -138t-35.5 -143t-62 -140t-94.5 -125.5t-129 -102.5t-168.5 -68t-210 -25t-210.5 25 t-169.5 68t-129.5 102.5t-95 125.5t-62.5 140t-35.5 143t-10.5 138zM457 719q0 -32 5.5 -69.5t18.5 -89.5t41 -98.5t67.5 -87t103.5 -65t143 -24.5q68 0 124.5 18.5t94.5 48.5t67.5 70.5t46 80.5t26.5 83.5t13.5 74.5t3.5 58q0 40 -7 86t-31 110t-62.5 113.5t-110 85 t-165.5 35.5t-166.5 -35.5t-111 -85t-63 -113t-31.5 -110t-7 -86.5zM592 1839l143 203l340 -264l-114 -168z" />
<glyph unicode="&#xd3;" horiz-adv-x="1669" d="M123 719q0 67 10.5 135.5t35.5 142t62.5 139.5t95.5 125.5t129.5 102.5t169 68.5t210.5 25.5q156 0 281.5 -48.5t203.5 -125t130.5 -176.5t73.5 -196.5t21 -192.5q0 -69 -10.5 -138t-35.5 -143t-62 -140t-94.5 -125.5t-129 -102.5t-168.5 -68t-210 -25t-210.5 25 t-169.5 68t-129.5 102.5t-95 125.5t-62.5 140t-35.5 143t-10.5 138zM457 719q0 -32 5.5 -69.5t18.5 -89.5t41 -98.5t67.5 -87t103.5 -65t143 -24.5q68 0 124.5 18.5t94.5 48.5t67.5 70.5t46 80.5t26.5 83.5t13.5 74.5t3.5 58q0 40 -7 86t-31 110t-62.5 113.5t-110 85 t-165.5 35.5t-166.5 -35.5t-111 -85t-63 -113t-31.5 -110t-7 -86.5zM592 1780l340 264l143 -203l-368 -229z" />
<glyph unicode="&#xd4;" horiz-adv-x="1669" d="M123 719q0 67 10.5 135.5t35.5 142t62.5 139.5t95.5 125.5t129.5 102.5t169 68.5t210.5 25.5q156 0 281.5 -48.5t203.5 -125t130.5 -176.5t73.5 -196.5t21 -192.5q0 -69 -10.5 -138t-35.5 -143t-62 -140t-94.5 -125.5t-129 -102.5t-168.5 -68t-210 -25t-210.5 25 t-169.5 68t-129.5 102.5t-95 125.5t-62.5 140t-35.5 143t-10.5 138zM457 719q0 -32 5.5 -69.5t18.5 -89.5t41 -98.5t67.5 -87t103.5 -65t143 -24.5q68 0 124.5 18.5t94.5 48.5t67.5 70.5t46 80.5t26.5 83.5t13.5 74.5t3.5 58q0 40 -7 86t-31 110t-62.5 113.5t-110 85 t-165.5 35.5t-166.5 -35.5t-111 -85t-63 -113t-31.5 -110t-7 -86.5zM494 1778l340 264l340 -264l-115 -168l-225 139l-226 -139z" />
<glyph unicode="&#xd5;" horiz-adv-x="1669" d="M123 719q0 67 10.5 135.5t35.5 142t62.5 139.5t95.5 125.5t129.5 102.5t169 68.5t210.5 25.5q156 0 281.5 -48.5t203.5 -125t130.5 -176.5t73.5 -196.5t21 -192.5q0 -69 -10.5 -138t-35.5 -143t-62 -140t-94.5 -125.5t-129 -102.5t-168.5 -68t-210 -25t-210.5 25 t-169.5 68t-129.5 102.5t-95 125.5t-62.5 140t-35.5 143t-10.5 138zM442 1716q50 108 120.5 156.5t142.5 48.5q42 0 113.5 -34t113.5 -34q58 0 104 74l166 -102q-50 -108 -122 -157.5t-144 -49.5q-42 0 -110 35t-107 35q-68 0 -111 -74zM457 719q0 -32 5.5 -69.5t18.5 -89.5 t41 -98.5t67.5 -87t103.5 -65t143 -24.5q68 0 124.5 18.5t94.5 48.5t67.5 70.5t46 80.5t26.5 83.5t13.5 74.5t3.5 58q0 40 -7 86t-31 110t-62.5 113.5t-110 85t-165.5 35.5t-166.5 -35.5t-111 -85t-63 -113t-31.5 -110t-7 -86.5z" />
<glyph unicode="&#xd6;" horiz-adv-x="1669" d="M123 719q0 67 10.5 135.5t35.5 142t62.5 139.5t95.5 125.5t129.5 102.5t169 68.5t210.5 25.5q156 0 281.5 -48.5t203.5 -125t130.5 -176.5t73.5 -196.5t21 -192.5q0 -69 -10.5 -138t-35.5 -143t-62 -140t-94.5 -125.5t-129 -102.5t-168.5 -68t-210 -25t-210.5 25 t-169.5 68t-129.5 102.5t-95 125.5t-62.5 140t-35.5 143t-10.5 138zM428 1780q0 69 48 117.5t118 48.5q69 0 116.5 -48.5t47.5 -117.5q0 -70 -47.5 -117t-116.5 -47q-71 0 -118.5 47t-47.5 117zM457 719q0 -32 5.5 -69.5t18.5 -89.5t41 -98.5t67.5 -87t103.5 -65t143 -24.5 q68 0 124.5 18.5t94.5 48.5t67.5 70.5t46 80.5t26.5 83.5t13.5 74.5t3.5 58q0 40 -7 86t-31 110t-62.5 113.5t-110 85t-165.5 35.5t-166.5 -35.5t-111 -85t-63 -113t-31.5 -110t-7 -86.5zM911 1780q0 69 48 117.5t118 48.5q69 0 116.5 -48.5t47.5 -117.5q0 -70 -47.5 -117 t-116.5 -47q-71 0 -118.5 47t-47.5 117z" />
<glyph unicode="&#xd7;" horiz-adv-x="1159" d="M205 219l203 201l-203 201l174 174l201 -201l202 201l172 -172l-202 -201l202 -201l-174 -174l-200 201l-203 -201z" />
<glyph unicode="&#xd8;" horiz-adv-x="1669" d="M123 719q0 67 10.5 135.5t35.5 142t62.5 139.5t95.5 125.5t129.5 102.5t169 68.5t210.5 25.5q211 0 368 -90l96 115l170 -142l-96 -114q88 -107 130 -242.5t42 -265.5q0 -69 -10.5 -138t-35.5 -143t-62 -140t-94.5 -125.5t-129 -102.5t-168.5 -68t-210 -25 q-247 0 -412 113l-92 -108l-170 141l102 123q-72 103 -106.5 227t-34.5 246zM457 719q0 -106 37 -199l499 596q-71 33 -157 33q-94 0 -166.5 -35.5t-111 -85t-63 -113t-31.5 -110t-7 -86.5zM633 340q80 -55 203 -55q68 0 124.5 18.5t94.5 48.5t67.5 70.5t46 80.5t26.5 83.5 t13.5 74.5t3.5 58q0 133 -59 244z" />
<glyph unicode="&#xd9;" horiz-adv-x="1515" d="M184 563v871h328v-871q0 -34 12 -76t37.5 -88.5t77 -78t119.5 -31.5q55 0 99.5 21.5t70.5 53t43.5 70.5t23.5 71t6 58v871h330v-871q0 -77 -18 -154t-61.5 -154.5t-107 -136t-163.5 -95.5t-223 -37t-223 37t-164 95.5t-107.5 136t-61.5 154.5t-18 154zM516 1839l143 203 l340 -264l-114 -168z" />
<glyph unicode="&#xda;" horiz-adv-x="1515" d="M184 563v871h328v-871q0 -34 12 -76t37.5 -88.5t77 -78t119.5 -31.5q55 0 99.5 21.5t70.5 53t43.5 70.5t23.5 71t6 58v871h330v-871q0 -77 -18 -154t-61.5 -154.5t-107 -136t-163.5 -95.5t-223 -37t-223 37t-164 95.5t-107.5 136t-61.5 154.5t-18 154zM516 1780l340 264 l143 -203l-368 -229z" />
<glyph unicode="&#xdb;" horiz-adv-x="1515" d="M184 563v871h328v-871q0 -34 12 -76t37.5 -88.5t77 -78t119.5 -31.5q55 0 99.5 21.5t70.5 53t43.5 70.5t23.5 71t6 58v871h330v-871q0 -77 -18 -154t-61.5 -154.5t-107 -136t-163.5 -95.5t-223 -37t-223 37t-164 95.5t-107.5 136t-61.5 154.5t-18 154zM418 1778l340 264 l340 -264l-115 -168l-225 139l-226 -139z" />
<glyph unicode="&#xdc;" horiz-adv-x="1515" d="M184 563v871h328v-871q0 -34 12 -76t37.5 -88.5t77 -78t119.5 -31.5q55 0 99.5 21.5t70.5 53t43.5 70.5t23.5 71t6 58v871h330v-871q0 -77 -18 -154t-61.5 -154.5t-107 -136t-163.5 -95.5t-223 -37t-223 37t-164 95.5t-107.5 136t-61.5 154.5t-18 154zM350 1780 q0 69 48 117.5t118 48.5q69 0 116.5 -48.5t47.5 -117.5q0 -70 -47.5 -117t-116.5 -47q-71 0 -118.5 47t-47.5 117zM834 1780q0 69 47.5 117.5t117.5 48.5q69 0 116.5 -48.5t47.5 -117.5q0 -70 -47.5 -117t-116.5 -47q-71 0 -118 47t-47 117z" />
<glyph unicode="&#xdd;" horiz-adv-x="1427" d="M61 1434h363l289 -482l288 482h365l-489 -797v-637h-326v633zM471 1780l340 264l143 -203l-368 -229z" />
<glyph unicode="&#xde;" horiz-adv-x="1355" d="M205 0v1434h321v-177h176q117 0 211 -36t152.5 -92.5t97.5 -130.5t54.5 -145t15.5 -142t-15.5 -142t-54.5 -145.5t-97.5 -131t-152.5 -92.5t-211 -36h-176v-164h-321zM526 457h162q65 0 112.5 28.5t69.5 72t31.5 81.5t9.5 72q0 26 -5 56t-20 66.5t-38.5 65.5t-65 48.5 t-94.5 19.5h-162v-510z" />
<glyph unicode="&#xdf;" horiz-adv-x="1384" d="M205 -82v1081q0 92 24.5 166t60.5 120t86.5 80t92.5 49.5t90.5 24.5t67.5 10t35 1q109 0 195 -31t136 -76.5t82 -105.5t43.5 -110.5t11.5 -98.5q0 -63 -19 -118t-41 -85t-41 -57t-19 -41q0 -12 17.5 -32.5t42.5 -48t50 -62.5t42.5 -88t17.5 -113q0 -188 -138.5 -298.5 t-410.5 -113.5v252q120 3 170.5 52.5t52.5 113.5q-3 39 -32 84t-61.5 80t-59.5 82t-27 90q0 35 15.5 69t38 62t44.5 54.5t37.5 56.5t15.5 59q0 9 -0.5 16.5t-8 30.5t-20.5 39t-43 29.5t-71 13.5q-24 0 -47 -6t-49 -20.5t-42.5 -47t-17.5 -77.5v-1086h-321z" />
<glyph unicode="&#xe0;" horiz-adv-x="1282" d="M61 0l568 1204h24l568 -1204h-338l-97 221h-294l-93 -221h-338zM399 1612l144 203l340 -265l-115 -168zM573 412h132l-66 155z" />
<glyph unicode="&#xe1;" horiz-adv-x="1282" d="M61 0l568 1204h24l568 -1204h-338l-97 221h-294l-93 -221h-338zM399 1544l340 264l144 -202l-369 -230zM573 412h132l-66 155z" />
<glyph unicode="&#xe2;" horiz-adv-x="1282" d="M61 0l568 1204h24l568 -1204h-338l-97 221h-294l-93 -221h-338zM301 1540l340 264l340 -264l-115 -168l-225 139l-225 -139zM573 412h132l-66 155z" />
<glyph unicode="&#xe3;" horiz-adv-x="1282" d="M61 0l568 1204h24l568 -1204h-338l-97 221h-294l-93 -221h-338zM260 1479q50 108 120 156t142 48q42 0 114 -33.5t114 -33.5q58 0 104 74l166 -103q-50 -108 -122 -157.5t-144 -49.5q-42 0 -110 35t-107 35q-68 0 -111 -74zM573 412h132l-66 155z" />
<glyph unicode="&#xe4;" horiz-adv-x="1282" d="M61 0l568 1204h24l568 -1204h-338l-97 221h-294l-93 -221h-338zM233 1542q0 69 48 117.5t118 48.5q69 0 116.5 -48.5t47.5 -117.5q0 -70 -47.5 -117t-116.5 -47q-71 0 -118.5 47t-47.5 117zM573 412h132l-66 155zM717 1542q0 69 48 117.5t118 48.5q69 0 116.5 -48.5 t47.5 -117.5q0 -70 -47.5 -117t-116.5 -47q-71 0 -118.5 47t-47.5 117z" />
<glyph unicode="&#xe5;" horiz-adv-x="1282" d="M61 0l568 1204h24l568 -1204h-338l-97 221h-294l-93 -221h-338zM424 1581q0 89 64 153t153 64t152 -64t63 -153t-63 -152t-152 -63t-153 63t-64 152zM573 412h132l-66 155zM580 1581q0 -23 18 -41t43 -18q23 0 41 18t18 41q0 25 -18 43t-41 18q-25 0 -43 -18t-18 -43z " />
<glyph unicode="&#xe6;" horiz-adv-x="1589" d="M61 0l564 1196h841v-291h-518v-157h404v-293h-404v-162h518v-293h-827v221h-147l-93 -221h-338zM573 412h66v155z" />
<glyph unicode="&#xe7;" horiz-adv-x="1271" d="M123 604q0 54 8.5 110t29 116.5t50.5 115t77 104.5t105 86t137.5 57t171.5 21q144 0 260.5 -61.5t227.5 -181.5l-209 -209q-68 75 -146.5 114t-150.5 39q-100 0 -176 -86t-76 -225q0 -21 4 -48.5t14 -65.5t30.5 -73t48.5 -66t74 -49.5t102 -18.5q67 0 146.5 41t152.5 104 l182 -221q-202 -202 -424 -221v-43q53 -1 94 -20t63 -48t33 -59.5t11 -59.5q0 -109 -71 -167t-173 -58q-106 0 -217 51l55 152q103 -31 141 -31q30 0 49.5 13.5t20.5 39.5q2 23 -19.5 41.5t-76.5 18.5h-51l-27 26v148q-103 16 -186 63.5t-135 110.5t-87 141t-49 152t-14 147 z" />
<glyph unicode="&#xe8;" horiz-adv-x="1114" d="M164 0v1196h827v-291h-518v-157h404v-293h-404v-162h518v-293h-827zM315 1602l144 202l340 -264l-115 -168z" />
<glyph unicode="&#xe9;" horiz-adv-x="1114" d="M164 0v1196h827v-291h-518v-157h404v-293h-404v-162h518v-293h-827zM315 1542l340 264l144 -202l-369 -230z" />
<glyph unicode="&#xea;" horiz-adv-x="1114" d="M164 0v1196h827v-291h-518v-157h404v-293h-404v-162h518v-293h-827zM217 1540l340 264l340 -264l-115 -168l-225 139l-225 -139z" />
<glyph unicode="&#xeb;" horiz-adv-x="1114" d="M152 1542q0 69 47.5 117.5t117.5 48.5q69 0 116.5 -48.5t47.5 -117.5q0 -70 -47.5 -117t-116.5 -47q-71 0 -118 47t-47 117zM164 0v1196h827v-291h-518v-157h404v-293h-404v-162h518v-293h-827zM635 1542q0 69 48 117.5t118 48.5q69 0 116.5 -48.5t47.5 -117.5 q0 -70 -47.5 -117t-116.5 -47q-71 0 -118.5 47t-47.5 117z" />
<glyph unicode="&#xec;" horiz-adv-x="565" d="M41 1602l143 202l340 -264l-114 -168zM125 0v1188h313v-1188h-313z" />
<glyph unicode="&#xed;" horiz-adv-x="565" d="M41 1542l340 264l143 -202l-368 -230zM125 0v1188h313v-1188h-313z" />
<glyph unicode="&#xee;" horiz-adv-x="679" d="M0 1540l340 264l340 -264l-115 -168l-225 139l-225 -139zM182 0v1188h314v-1188h-314z" />
<glyph unicode="&#xef;" horiz-adv-x="813" d="M0 1542q0 69 48 117.5t118 48.5q69 0 116.5 -48.5t47.5 -117.5q0 -70 -47.5 -117t-116.5 -47q-71 0 -118.5 47t-47.5 117zM250 0v1188h313v-1188h-313zM483 1542q0 69 48 117.5t118 48.5q69 0 116.5 -48.5t47.5 -117.5q0 -70 -47.5 -117t-116.5 -47q-71 0 -118.5 47 t-47.5 117z" />
<glyph unicode="&#xf0;" horiz-adv-x="1296" d="M47 481v248h117v469h430q107 0 196 -26.5t151 -72t108.5 -103.5t73 -125t39 -131t12.5 -128q0 -56 -8.5 -113t-29 -117.5t-51 -115.5t-77.5 -104t-105.5 -84.5t-137.5 -56.5t-171 -21h-430v481h-117zM473 293h121q48 0 88 14t67 35.5t48 51.5t33 59.5t19.5 61.5t10 55 t2.5 42q0 28 -5 60.5t-22.5 76.5t-45 78t-78.5 58t-117 24h-121v-180h160v-248h-160v-188z" />
<glyph unicode="&#xf1;" horiz-adv-x="1308" d="M164 0v1186l29 10l638 -557v557h314v-1196l-27 -8l-643 553v-545h-311zM274 1479q50 108 120.5 156t142.5 48q42 0 113.5 -33.5t113.5 -33.5q58 0 104 74l166 -103q-50 -108 -122 -157.5t-144 -49.5q-42 0 -110 35t-107 35q-68 0 -111 -74z" />
<glyph unicode="&#xf2;" horiz-adv-x="1404" d="M123 604q0 78 17 156.5t59 161.5t105.5 146t166 103.5t229.5 40.5q129 0 232.5 -40.5t167 -103.5t106 -146t59.5 -161.5t17 -156.5q0 -66 -12.5 -133t-38.5 -138t-72 -132t-108 -110t-152.5 -77t-198.5 -28q-128 0 -230 40.5t-165.5 104.5t-105.5 148t-59 164.5 t-17 160.5zM430 604q0 -23 4 -51t13.5 -67t29.5 -73.5t48 -65t73.5 -48.5t101.5 -18t101.5 18t73.5 48.5t48 65t29 73.5t13 66.5t4 51.5q0 23 -4 50.5t-13 65t-29 71t-48 63t-73.5 47t-101.5 17.5t-101.5 -17.5t-73.5 -47t-48 -63t-29.5 -71t-13.5 -65t-4 -50.5zM461 1602 l143 202l340 -264l-115 -168z" />
<glyph unicode="&#xf3;" horiz-adv-x="1404" d="M123 604q0 78 17 156.5t59 161.5t105.5 146t166 103.5t229.5 40.5q129 0 232.5 -40.5t167 -103.5t106 -146t59.5 -161.5t17 -156.5q0 -66 -12.5 -133t-38.5 -138t-72 -132t-108 -110t-152.5 -77t-198.5 -28q-128 0 -230 40.5t-165.5 104.5t-105.5 148t-59 164.5 t-17 160.5zM430 604q0 -23 4 -51t13.5 -67t29.5 -73.5t48 -65t73.5 -48.5t101.5 -18t101.5 18t73.5 48.5t48 65t29 73.5t13 66.5t4 51.5q0 23 -4 50.5t-13 65t-29 71t-48 63t-73.5 47t-101.5 17.5t-101.5 -17.5t-73.5 -47t-48 -63t-29.5 -71t-13.5 -65t-4 -50.5zM461 1542 l340 264l143 -202l-369 -230z" />
<glyph unicode="&#xf4;" horiz-adv-x="1404" d="M123 604q0 78 17 156.5t59 161.5t105.5 146t166 103.5t229.5 40.5q129 0 232.5 -40.5t167 -103.5t106 -146t59.5 -161.5t17 -156.5q0 -66 -12.5 -133t-38.5 -138t-72 -132t-108 -110t-152.5 -77t-198.5 -28q-128 0 -230 40.5t-165.5 104.5t-105.5 148t-59 164.5 t-17 160.5zM362 1540l340 264l340 -264l-114 -168l-226 139l-225 -139zM430 604q0 -23 4 -51t13.5 -67t29.5 -73.5t48 -65t73.5 -48.5t101.5 -18t101.5 18t73.5 48.5t48 65t29 73.5t13 66.5t4 51.5q0 23 -4 50.5t-13 65t-29 71t-48 63t-73.5 47t-101.5 17.5t-101.5 -17.5 t-73.5 -47t-48 -63t-29.5 -71t-13.5 -65t-4 -50.5z" />
<glyph unicode="&#xf5;" horiz-adv-x="1404" d="M123 604q0 78 17 156.5t59 161.5t105.5 146t166 103.5t229.5 40.5q129 0 232.5 -40.5t167 -103.5t106 -146t59.5 -161.5t17 -156.5q0 -66 -12.5 -133t-38.5 -138t-72 -132t-108 -110t-152.5 -77t-198.5 -28q-128 0 -230 40.5t-165.5 104.5t-105.5 148t-59 164.5 t-17 160.5zM322 1479q50 108 120 156t142 48q42 0 113.5 -33.5t113.5 -33.5q58 0 104 74l166 -103q-50 -108 -122 -157.5t-144 -49.5q-43 0 -110 35t-107 35q-68 0 -111 -74zM430 604q0 -23 4 -51t13.5 -67t29.5 -73.5t48 -65t73.5 -48.5t101.5 -18t101.5 18t73.5 48.5 t48 65t29 73.5t13 66.5t4 51.5q0 23 -4 50.5t-13 65t-29 71t-48 63t-73.5 47t-101.5 17.5t-101.5 -17.5t-73.5 -47t-48 -63t-29.5 -71t-13.5 -65t-4 -50.5z" />
<glyph unicode="&#xf6;" horiz-adv-x="1404" d="M123 604q0 78 17 156.5t59 161.5t105.5 146t166 103.5t229.5 40.5q129 0 232.5 -40.5t167 -103.5t106 -146t59.5 -161.5t17 -156.5q0 -66 -12.5 -133t-38.5 -138t-72 -132t-108 -110t-152.5 -77t-198.5 -28q-128 0 -230 40.5t-165.5 104.5t-105.5 148t-59 164.5 t-17 160.5zM295 1542q0 69 48 117.5t118 48.5q69 0 116.5 -48.5t47.5 -117.5q0 -70 -47.5 -117t-116.5 -47q-71 0 -118.5 47t-47.5 117zM430 604q0 -23 4 -51t13.5 -67t29.5 -73.5t48 -65t73.5 -48.5t101.5 -18t101.5 18t73.5 48.5t48 65t29 73.5t13 66.5t4 51.5 q0 23 -4 50.5t-13 65t-29 71t-48 63t-73.5 47t-101.5 17.5t-101.5 -17.5t-73.5 -47t-48 -63t-29.5 -71t-13.5 -65t-4 -50.5zM778 1542q0 69 48 117.5t118 48.5q69 0 116.5 -48.5t47.5 -117.5q0 -70 -47.5 -117t-116.5 -47q-71 0 -118.5 47t-47.5 117z" />
<glyph unicode="&#xf7;" horiz-adv-x="958" d="M123 399v224h713v-224h-713zM322 156q0 66 45 111.5t112 45.5q66 0 111 -45.5t45 -111.5q0 -68 -44.5 -112t-111.5 -44q-68 0 -112.5 43.5t-44.5 112.5zM322 872q0 66 45 111t112 45q66 0 111 -45t45 -111q0 -68 -44.5 -112.5t-111.5 -44.5q-68 0 -112.5 44t-44.5 113z " />
<glyph unicode="&#xf8;" horiz-adv-x="1404" d="M123 604q0 78 17 156.5t59 161.5t105.5 146t166 103.5t229.5 40.5q174 0 304 -73l106 127l170 -142l-115 -135q59 -86 88 -188t29 -197q0 -66 -12.5 -133t-38.5 -138t-72 -132t-108 -110t-152.5 -77t-198.5 -28q-183 0 -309 77l-94 -110l-170 141l104 125 q-108 168 -108 385zM430 604q0 -58 19 -127l354 422q-55 19 -103 19q-56 0 -101.5 -17.5t-73.5 -47t-48 -63t-29.5 -71t-13.5 -65t-4 -50.5zM590 303q49 -22 110 -22q56 0 101.5 18t73.5 48.5t48 65t29 73.5t13 66.5t4 51.5q0 58 -21 125z" />
<glyph unicode="&#xf9;" horiz-adv-x="1198" d="M123 465v731h311v-731q0 -23 7.5 -51.5t24.5 -60t51.5 -53t80.5 -21.5t80.5 21.5t51.5 53t24.5 60t7.5 51.5v731h313v-731q0 -63 -15 -127t-51.5 -127.5t-89.5 -112.5t-136 -79.5t-185 -30.5q-101 0 -183.5 30.5t-135.5 79.5t-89 112.5t-51.5 127.5t-15.5 127zM356 1602 l144 202l340 -264l-115 -168z" />
<glyph unicode="&#xfa;" horiz-adv-x="1198" d="M123 465v731h311v-731q0 -23 7.5 -51.5t24.5 -60t51.5 -53t80.5 -21.5t80.5 21.5t51.5 53t24.5 60t7.5 51.5v731h313v-731q0 -63 -15 -127t-51.5 -127.5t-89.5 -112.5t-136 -79.5t-185 -30.5q-101 0 -183.5 30.5t-135.5 79.5t-89 112.5t-51.5 127.5t-15.5 127zM356 1542 l340 264l144 -202l-369 -230z" />
<glyph unicode="&#xfb;" horiz-adv-x="1198" d="M123 465v731h311v-731q0 -23 7.5 -51.5t24.5 -60t51.5 -53t80.5 -21.5t80.5 21.5t51.5 53t24.5 60t7.5 51.5v731h313v-731q0 -63 -15 -127t-51.5 -127.5t-89.5 -112.5t-136 -79.5t-185 -30.5q-101 0 -183.5 30.5t-135.5 79.5t-89 112.5t-51.5 127.5t-15.5 127zM258 1540 l340 264l340 -264l-115 -168l-225 139l-225 -139z" />
<glyph unicode="&#xfc;" horiz-adv-x="1198" d="M123 465v731h311v-731q0 -23 7.5 -51.5t24.5 -60t51.5 -53t80.5 -21.5t80.5 21.5t51.5 53t24.5 60t7.5 51.5v731h313v-731q0 -63 -15 -127t-51.5 -127.5t-89.5 -112.5t-136 -79.5t-185 -30.5q-101 0 -183.5 30.5t-135.5 79.5t-89 112.5t-51.5 127.5t-15.5 127zM193 1542 q0 69 47.5 117.5t117.5 48.5q69 0 116.5 -48.5t47.5 -117.5q0 -70 -47.5 -117t-116.5 -47q-71 0 -118 47t-47 117zM676 1542q0 69 48 117.5t118 48.5q69 0 116.5 -48.5t47.5 -117.5q0 -70 -47.5 -117t-116.5 -47q-71 0 -118.5 47t-47.5 117z" />
<glyph unicode="&#xfd;" horiz-adv-x="1247" d="M61 1196h355l205 -358l210 358h355l-408 -676v-520h-309v518zM381 1544l340 264l143 -202l-368 -230z" />
<glyph unicode="&#xfe;" horiz-adv-x="1259" d="M164 2v1194h311v-90q78 20 152 20q113 0 203.5 -34.5t146.5 -89t93 -126t52 -140.5t15 -138t-15 -138t-52 -140.5t-93 -126t-146.5 -89t-203.5 -34.5q-74 0 -152 20v-88h-311zM475 387q53 -33 135 -33q64 0 110 27.5t67.5 69.5t30.5 78.5t9 68.5t-9 68.5t-30.5 78.5 t-67.5 69.5t-110 27.5q-82 0 -135 -33v-422z" />
<glyph unicode="&#xff;" horiz-adv-x="1247" d="M61 1196h355l205 -358l210 358h355l-408 -676v-520h-309v518zM217 1542q0 69 48 117.5t118 48.5q69 0 116.5 -48.5t47.5 -117.5q0 -70 -47.5 -117t-116.5 -47q-71 0 -118.5 47t-47.5 117zM700 1542q0 69 48 117.5t118 48.5q69 0 116.5 -48.5t47.5 -117.5 q0 -70 -47.5 -117t-116.5 -47q-71 0 -118.5 47t-47.5 117z" />
<glyph unicode="&#x152;" horiz-adv-x="2129" d="M123 719q0 67 10.5 135.5t35.5 142t62.5 139.5t95.5 125.5t129.5 102.5t169 68.5t210.5 25.5q99 0 204 -24h967v-306h-664v-268h519v-305h-519v-250h664v-305h-969q-100 -23 -202 -23q-113 0 -210.5 25t-169.5 68t-129.5 102.5t-95 125.5t-62.5 140t-35.5 143t-10.5 138z M457 719q0 -32 5.5 -69.5t18.5 -89.5t41 -98.5t67.5 -87t103.5 -65t143 -24.5q100 0 180 41v780q-78 43 -180 43q-94 0 -166.5 -35.5t-111 -85t-63 -113t-31.5 -110t-7 -86.5z" />
<glyph unicode="&#x153;" horiz-adv-x="1773" d="M123 604q0 78 17 156.5t59 161.5t105.5 146t166 103.5t229.5 40.5q79 0 154 -16h797v-291h-518v-157h403v-293h-403v-162h518v-293h-805q-79 -14 -146 -14q-128 0 -230 40.5t-165.5 104.5t-105.5 148t-59 164.5t-17 160.5zM430 604q0 -23 4 -51t13.5 -67t29.5 -73.5 t48 -65t73.5 -48.5t101.5 -18q69 0 123 28v580q-56 29 -123 29q-56 0 -101.5 -17.5t-73.5 -47t-48 -63t-29.5 -71t-13.5 -65t-4 -50.5z" />
<glyph unicode="&#x178;" horiz-adv-x="1427" d="M61 1434h363l289 -482l288 482h365l-489 -797v-637h-326v633zM307 1780q0 69 48 117.5t118 48.5q69 0 116.5 -48.5t47.5 -117.5q0 -70 -47.5 -117t-116.5 -47q-71 0 -118.5 47t-47.5 117zM791 1780q0 69 47.5 117.5t117.5 48.5q69 0 116.5 -48.5t47.5 -117.5 q0 -70 -47.5 -117t-116.5 -47q-71 0 -118 47t-47 117z" />
<glyph unicode="&#x2c6;" horiz-adv-x="1060" d="M199 1368l340 264l340 -264l-115 -168l-225 139l-226 -139z" />
<glyph unicode="&#x2dc;" horiz-adv-x="1095" d="M156 1307q50 108 120 156t142 48q42 0 113.5 -33.5t113.5 -33.5q59 0 105 74l165 -103q-50 -108 -122 -157.5t-144 -49.5q-43 0 -110 35t-107 35q-67 0 -110 -74z" />
<glyph unicode="&#x2000;" horiz-adv-x="1022" />
<glyph unicode="&#x2001;" horiz-adv-x="2044" />
<glyph unicode="&#x2002;" horiz-adv-x="1022" />
<glyph unicode="&#x2003;" horiz-adv-x="2044" />
<glyph unicode="&#x2004;" horiz-adv-x="681" />
<glyph unicode="&#x2005;" horiz-adv-x="511" />
<glyph unicode="&#x2006;" horiz-adv-x="340" />
<glyph unicode="&#x2007;" horiz-adv-x="340" />
<glyph unicode="&#x2008;" horiz-adv-x="255" />
<glyph unicode="&#x2009;" horiz-adv-x="408" />
<glyph unicode="&#x200a;" horiz-adv-x="113" />
<glyph unicode="&#x2010;" horiz-adv-x="913" d="M164 481v248h586v-248h-586z" />
<glyph unicode="&#x2011;" horiz-adv-x="913" d="M164 481v248h586v-248h-586z" />
<glyph unicode="&#x2012;" horiz-adv-x="913" d="M164 481v248h586v-248h-586z" />
<glyph unicode="&#x2013;" horiz-adv-x="1126" d="M164 528v244h801v-244h-801z" />
<glyph unicode="&#x2014;" horiz-adv-x="1376" d="M164 528v244h1048v-244h-1048z" />
<glyph unicode="&#x2018;" horiz-adv-x="612" d="M123 1004q0 95 75.5 253t149.5 242l137 -78q-37 -62 -73 -144t-43 -126q51 -11 85.5 -57t34.5 -107q0 -73 -53.5 -125.5t-124.5 -52.5q-97 0 -142.5 57t-45.5 138z" />
<glyph unicode="&#x2019;" horiz-adv-x="612" d="M123 1321q0 73 53.5 125.5t124.5 52.5q67 0 111 -30t60.5 -71.5t16.5 -92.5q0 -95 -75.5 -253.5t-149.5 -242.5l-137 78q37 63 73.5 144.5t43.5 125.5q-52 11 -86.5 57t-34.5 107z" />
<glyph unicode="&#x201a;" horiz-adv-x="679" d="M164 -274q32 54 67 135t48 127q-111 36 -111 159q0 71 47.5 119.5t118.5 48.5q94 0 138 -53.5t44 -130.5q0 -93 -70 -241t-139 -234z" />
<glyph unicode="&#x201c;" horiz-adv-x="1093" d="M123 1004q0 95 75.5 253t149.5 242l137 -78q-37 -62 -73 -144t-43 -126q51 -11 85.5 -57t34.5 -107q0 -73 -53.5 -125.5t-124.5 -52.5q-97 0 -142.5 57t-45.5 138zM604 1004q0 95 75.5 253t149.5 242l138 -78q-37 -63 -73.5 -144.5t-43.5 -125.5q52 -11 86.5 -57 t34.5 -107q0 -73 -53.5 -125.5t-124.5 -52.5q-67 0 -111 30t-61 72t-17 93z" />
<glyph unicode="&#x201d;" horiz-adv-x="1093" d="M123 1321q0 73 53.5 125.5t124.5 52.5q67 0 111 -30t60.5 -71.5t16.5 -92.5q0 -95 -75.5 -253.5t-149.5 -242.5l-137 78q37 63 73.5 144.5t43.5 125.5q-52 11 -86.5 57t-34.5 107zM604 1321q0 73 53.5 125.5t124.5 52.5q51 0 89 -17t59 -45.5t31 -61.5t10 -70 q0 -95 -76 -253.5t-150 -242.5l-137 78q37 63 73.5 144.5t43.5 125.5q-52 11 -86.5 57t-34.5 107z" />
<glyph unicode="&#x201e;" horiz-adv-x="1114" d="M164 -274q32 54 67 135t48 127q-111 36 -111 159q0 71 47.5 119.5t118.5 48.5q94 0 138 -53.5t44 -130.5q0 -93 -70 -241t-139 -234zM680 -274q32 54 67 135t48 127q-111 36 -111 159q0 71 47.5 119.5t118.5 48.5q94 0 138 -53.5t44 -130.5q0 -93 -70 -241t-139 -234z " />
<glyph unicode="&#x2022;" horiz-adv-x="884" d="M164 590q0 113 82.5 198.5t189.5 85.5q119 0 202 -84.5t83 -199.5q0 -109 -83.5 -192t-201.5 -83q-106 0 -189 84t-83 191z" />
<glyph unicode="&#x2026;" horiz-adv-x="1597" d="M164 158q0 71 51 121.5t121 50.5q71 0 120.5 -50t49.5 -122q0 -70 -50 -120t-120 -50t-121 50t-51 120zM668 158q0 71 51 121.5t121 50.5q71 0 120.5 -50t49.5 -122q0 -70 -50 -120t-120 -50t-121 50t-51 120zM1174 158q0 71 51 121.5t121 50.5q71 0 120.5 -50t49.5 -122 q0 -70 -50 -120t-120 -50t-121 50t-51 120z" />
<glyph unicode="&#x202f;" horiz-adv-x="408" />
<glyph unicode="&#x2039;" horiz-adv-x="673" d="M61 510v27l388 413l163 -141l-229 -285l229 -288l-163 -142z" />
<glyph unicode="&#x203a;" horiz-adv-x="673" d="M61 236l230 288l-230 285l164 141l387 -413v-27l-387 -416z" />
<glyph unicode="&#x205f;" horiz-adv-x="511" />
<glyph unicode="&#x20ac;" horiz-adv-x="1193" d="M20 442l58 195h82q-2 35 -2 108h-138l58 195h98q19 100 57 186t99 158.5t153.5 114t206.5 41.5q243 0 420 -205l-199 -199q-53 56 -115 85.5t-106 29.5q-87 0 -135.5 -56.5t-71.5 -154.5h379l-55 -195h-338v-4q0 -67 4 -104h277l-52 -195h-182q30 -79 70.5 -123.5 t103.5 -44.5q44 0 106 33t115 90l193 -194q-192 -217 -414 -217q-100 0 -183.5 34t-144.5 96.5t-103.5 144t-67.5 181.5h-173z" />
<glyph unicode="&#x2122;" horiz-adv-x="1390" d="M92 1372v176h440v-176h-129v-381h-184v381h-127zM543 991l215 555h28l136 -231l125 231h30l221 -555h-188l-66 199l-112 -203h-25l-112 195l-58 -191h-194z" />
<glyph unicode="&#xe000;" horiz-adv-x="1198" d="M0 0v1198h1198v-1198h-1198z" />
</font>
</defs>
</svg>
